<svg width="865" height="965" viewBox="0 0 865 965" fill="none" xmlns="http://www.w3.org/2000/svg">
<path fill-rule="evenodd" clip-rule="evenodd" d="M301.2 183.9L299.1 186H337.133C336.356 187 335.578 188 334.8 189C325.59 200.889 316.1 212.358 306.329 223.405C301.065 216.376 294.456 210.108 286.5 204.6C279.062 199.308 270.653 194.885 261.272 191.332C260.96 182.71 258.069 174.533 252.6 166.8C247 158.6 238.2 152 226.2 147C214.2 141.8 198.7 139.2 179.7 139.2C161.5 139.2 145.2 141.6 130.8 146.4C116.4 151.2 104.1 157.8 93.9 166.2C83.9 174.6 76.2 184.1 70.8 194.7C65.6 205.3 63 216.4 63 228C63 243.6 67.3 257.7 75.9 270.3C84.7 282.7 97.5 292.5 114.3 299.7C131.3 307.1 152.1 310.8 176.7 310.8C199.5 310.8 221.5 306.7 242.7 298.5C263.9 290.5 282.5 278.9 298.5 263.7C304.532 257.991 310.187 251.877 315.464 245.356C316.955 250.717 317.7 256.332 317.7 262.2C317.7 276.2 313.9 289.3 306.3 301.5C298.9 313.9 288.6 324.8 275.4 334.2C262.2 343.6 246.9 350.9 229.5 356.1C212.1 361.5 193.5 364.2 173.7 364.2C148.5 364.2 125.4 360.8 104.4 354C83.4 347.4 65.2 338 49.8 325.8C34.6 313.6 22.8 299.1 14.4 282.3C6 265.5 1.8 247 1.8 226.8C1.8 206.6 6 188.1 14.4 171.3C22.8 154.5 34.6 140 49.8 127.8C65.2 115.4 83.4 105.9 104.4 99.3C125.4 92.5 148.5 89.1 173.7 89.1C189.3 89.1 204 90.7 217.8 93.9C231.8 97.1 244.1 101.6 254.7 107.4C262.932 111.821 269.653 116.881 274.864 122.58C280.049 130.381 286.428 136.221 294 140.1L294.9 138C286.9 134 280.4 127.8 275.4 119.4C270.4 110.8 267.9 101.9 267.9 92.7C267.9 81.5 270.7 71.1 276.3 61.5C282.1 51.7 290 43.2 300 36C310 28.8 321.5 23.2 334.5 19.2C347.7 15 361.8 12.9 376.8 12.9C397.2 12.9 416.1 15 433.5 19.2C451.1 23.2 467.7 28.2 483.3 34.2C499.1 40.2 514.5 46.2 529.5 52.2C544.5 58.2 559.8 63.3 575.4 67.5C591 71.5 607.5 73.5 624.9 73.5C638.7 73.5 650.4 71.7 660 68.1C669.6 64.5 677.1 60.1 682.5 54.9C688.1 49.5 691.5 44.1 692.7 38.7L690.6 38.4C689.4 43.4 686.2 48.5 681 53.7C675.8 58.7 668.6 62.9 659.4 66.3C650.2 69.5 638.9 71.1 625.5 71.1C608.9 71.1 592.6 68.7 576.6 63.9C560.8 59.1 545.1 53.2 529.5 46.2C514.1 39 498.5 31.9 482.7 24.9C466.9 17.9 450.8 12 434.4 7.2C418 2.4 401 0 383.4 0C367.2 0 352 2.4 337.8 7.2C323.6 11.8 311.1 18.3 300.3 26.7C289.5 34.9 281 44.7 274.8 56.1C268.8 67.3 265.8 79.5 265.8 92.7C265.8 101.301 267.803 109.517 271.808 117.348C267.239 113.265 261.836 109.549 255.6 106.2C245 100.2 232.6 95.6 218.4 92.4C204.4 89 189.5 87.3 173.7 87.3C148.3 87.3 125 90.7 103.8 97.5C82.6 104.3 64.2 114 48.6 126.6C33.2 139 21.2 153.7 12.6 170.7C4.2 187.7 0 206.4 0 226.8C0 247.2 4.2 265.9 12.6 282.9C21 299.9 32.9 314.6 48.3 327C63.9 339.4 82.3 349 103.5 355.8C124.7 362.6 148.1 366 173.7 366C193.9 366 212.8 363.3 230.4 357.9C248 352.5 263.4 345 276.6 335.4C290 326 300.5 315 308.1 302.4C315.7 290 319.5 276.6 319.5 262.2C319.5 255.747 318.603 249.573 316.808 243.677C320.83 238.593 324.627 233.267 328.2 227.7C337 214.3 345.3 200.5 353.1 186.3C353.156 186.2 353.213 186.1 353.269 186H390.865L376.8 205.2H379.5C383.5 201.2 387.6 197.4 391.8 193.8C396 190.2 400 187.1 403.8 184.5C407.8 181.9 411.2 180.2 414 179.4H395.7L392.404 183.9H354.455C362.014 170.544 369.663 157.544 377.4 144.9C385.6 131.3 394.6 119 404.4 108C409.8 102 415.6 96.7 421.8 92.1C428 87.3 434.1 83.4 440.1 80.4C446.1 77.2 451.5 75.1 456.3 74.1H441C435 77.3 428.8 81.6 422.4 87C416.2 92.2 409.6 98.5 402.6 105.9C390.8 118.5 379.3 131.9 368.1 146.1C358.4 158.622 348.622 171.222 338.766 183.9H301.2ZM305.141 224.745C303.634 226.44 302.12 228.125 300.6 229.8C288.8 242.6 276.3 254.1 263.1 264.3C249.9 274.3 235.7 282.2 220.5 288C205.5 294 189 297 171 297C156.6 297 143 295.7 130.2 293.1C117.4 290.5 106.1 286.4 96.3 280.8C86.5 275.2 78.8 268.1 73.2 259.5C67.6 250.7 64.8 240.2 64.8 228C64.8 216.6 67.4 205.7 72.6 195.3C77.8 184.9 85.3 175.6 95.1 167.4C105.1 159.2 117.2 152.8 131.4 148.2C145.6 143.4 161.7 141 179.7 141C197.9 141 212.9 143.5 224.7 148.5C236.5 153.3 245.2 159.7 250.8 167.7C256.115 174.847 258.994 182.498 259.439 190.653C256.268 189.505 252.988 188.454 249.6 187.5C235.6 183.5 220.2 181.5 203.4 181.5C186.6 181.5 171.6 183.5 158.4 187.5C145.4 191.3 135.1 196.6 127.5 203.4C120.1 210.2 116.4 218 116.4 226.8C116.4 236.6 121.3 244.4 131.1 250.2C140.9 256 154 258.9 170.4 258.9C185 258.9 197.9 257 209.1 253.2C220.5 249.2 230 244 237.6 237.6C245.4 231 251.3 223.8 255.3 216C259.206 208.383 261.205 200.862 261.297 193.436C261.599 193.557 261.9 193.678 262.2 193.8C279.4 200.6 292.9 209.9 302.7 221.7C303.55 222.703 304.364 223.718 305.141 224.745ZM259.5 192.737C259.5 192.792 259.5 192.846 259.5 192.9C259.5 200.3 257.5 207.8 253.5 215.4C249.5 223 243.7 230 236.1 236.4C228.5 242.6 219.2 247.6 208.2 251.4C197.2 255.2 184.6 257.1 170.4 257.1C154.6 257.1 141.9 254.4 132.3 249C122.9 243.4 118.2 236 118.2 226.8C118.2 218.4 121.9 211 129.3 204.6C136.7 198 146.8 192.8 159.6 189C172.4 185.2 187 183.3 203.4 183.3C224.257 183.3 242.957 186.446 259.5 192.737ZM632.393 269.7C632.393 275.7 635.093 278.7 640.493 278.7C646.893 278.7 654.593 275.4 663.593 268.8C672.793 262 682.893 252.4 693.893 240L695.993 237.6L696.103 237.6L698.803 234.6C703.403 229.6 708.203 225 713.203 220.8C718.403 216.6 723.103 213.3 727.303 210.9C731.703 208.3 735.103 207 737.503 207C739.903 207 741.103 208.1 741.103 210.3C741.103 213.7 739.603 217.2 736.603 220.8C733.603 224.2 729.803 227.8 725.203 231.6C720.803 235.4 716.303 239.4 711.703 243.6C707.303 247.6 703.603 251.8 700.603 256.2C697.603 260.6 696.103 265.3 696.103 270.3C696.103 275.9 698.603 278.7 703.603 278.7C706.803 278.7 711.003 277.3 716.203 274.5C721.403 271.7 727.003 268 733.003 263.4C739.003 258.8 744.603 253.8 749.803 248.4H750.659C736.706 267.214 723.02 285.314 709.603 302.7C695.603 321.1 681.903 338.1 668.503 353.7C654.903 369.5 641.703 383.2 628.903 394.8C616.103 406.4 603.703 415.4 591.703 421.8C587.463 424.094 583.258 425.989 579.09 427.486C577.553 408.894 571.69 392.466 561.5 378.2C549.7 361.4 533 348.4 511.4 339.2C506.097 336.892 500.565 334.868 494.804 333.127C500.482 330.223 505.014 327.247 508.4 324.2C512.4 320.4 514.4 316.3 514.4 311.9C514.4 305.3 510.4 302 502.4 302C494.8 302 486.7 305.4 478.1 312.2C473.063 316.158 468.062 320.979 463.096 326.662C454.219 325.621 444.92 325.1 435.2 325.1C411.2 325.1 388.4 327.9 366.8 333.5C345.2 339.1 325.4 347 307.4 357.2C289.4 367.2 273.8 379.1 260.6 392.9C247.6 406.7 237.5 422 230.3 438.8C223.1 455.4 219.5 472.9 219.5 491.3C219.5 510.7 223.6 528.6 231.8 545C232.248 545.907 232.705 546.807 233.172 547.7C231.442 547.35 229.694 547.016 227.929 546.7C214.529 544.3 200.929 543.1 187.129 543.1C160.529 543.1 135.829 547.3 113.029 555.7C90.4293 563.9 70.6293 575.5 53.6293 590.5C36.8293 605.5 23.7293 623.1 14.3293 643.3C4.9293 663.3 0.229294 685.1 0.229294 708.7C0.229294 729.1 4.12929 748 11.9293 765.4C19.5293 782.6 30.3293 797.5 44.3293 810.1C58.3293 822.7 74.8293 832.5 93.8293 839.5C112.829 846.5 133.629 850 156.229 850C172.229 850 188.629 848 205.429 844C212.24 842.459 218.97 840.656 225.616 838.589C241.77 850.184 255.841 859.788 267.829 867.4C280.429 875.4 291.629 881.7 301.429 886.3C311.229 890.9 340.7 901.7 349.5 903.5C353.151 904.33 356.854 904.987 360.608 905.473C353.43 913 346.371 919.909 339.429 926.2C326.629 937.8 314.229 946.8 302.229 953.2C290.029 959.8 278.129 963.1 266.529 963.1C257.529 963.1 250.429 961.2 245.229 957.4C240.029 953.6 237.428 948.3 237.428 941.5C237.428 937.1 238.829 933.3 241.629 930.1C244.229 926.9 247.729 924.8 252.129 923.8V922.3C247.329 923.5 243.429 925.8 240.429 929.2C237.229 932.6 235.629 936.7 235.629 941.5C235.629 949.1 238.528 954.9 244.328 958.9C250.128 962.9 258.429 964.9 269.229 964.9C283.629 964.9 297.428 961.9 310.629 955.9C323.829 949.9 336.729 941.3 349.329 930.1C357.25 923.073 365.171 915.189 373.093 906.448C374.323 906.483 375.559 906.5 376.8 906.5C395.6 906.5 410.5 903.2 421.5 896.6C432.5 890 438 881.2 438 870.2C438 864.6 435.9 858.5 431.7 851.9L430.2 852.8C433.8 858.2 435.6 863.4 435.6 868.4C435.6 878 430.9 885.5 421.5 890.9C412.1 896.3 399.1 899 382.5 899C381.56 899 380.622 898.991 379.687 898.974C381.967 896.32 384.248 893.596 386.529 890.8C398.928 875.6 411.428 858.8 424.029 840.4C436.828 822.2 450.029 802.9 463.629 782.5C468.229 777.3 473.329 772.1 478.929 766.9C484.729 761.5 490.629 756.3 496.629 751.3C502.629 746.3 508.229 741.9 513.429 738.1H496.629L483.429 754L458.229 779.8C453.229 784.8 447.828 789.5 442.029 793.9C436.229 798.3 430.828 801.9 425.828 804.7C421.029 807.3 417.229 808.6 414.429 808.6C413.229 808.6 412.129 808.3 411.129 807.7C410.129 806.9 409.629 805.8 409.629 804.4C409.629 801.4 411.229 798.2 414.429 794.8C417.629 791.4 421.629 787.9 426.429 784.3C431.229 780.7 435.928 776.9 440.529 772.9C445.328 768.9 449.328 764.8 452.529 760.6C455.729 756.2 457.328 751.8 457.328 747.4C457.328 743.6 456.229 740.9 454.029 739.3C452.029 737.7 450.128 736.9 448.328 736.9C443.728 736.9 437.629 739.6 430.029 745C422.629 750.2 414.929 757.2 406.929 766L404.229 769H404.102L401.402 772C397.002 777 392.702 780.9 388.502 783.7C384.502 786.5 381.102 787.9 378.302 787.9C375.502 787.9 374.102 786.5 374.102 783.7C374.102 780.955 375.107 778.461 377.116 776.218C377.513 775.813 377.908 775.407 378.302 775C385.502 767.4 391.502 760.8 396.302 755.2C401.102 749.4 403.502 744.6 403.502 740.8C403.502 736.8 400.902 734.8 395.702 734.8C389.502 734.8 382.902 736.1 375.902 738.7C369.102 741.3 362.502 744.9 356.102 749.5C349.702 753.9 343.902 758.9 338.702 764.5C337.272 765.985 335.925 767.485 334.662 769H334.429L332.329 771.4C322.129 782.8 310.229 793.2 296.629 802.6C283.029 812 268.429 820.1 252.829 826.9C244.555 830.507 236.168 833.663 227.669 836.37C218.604 830.604 209.59 825.048 200.629 819.7C198.718 818.59 196.801 817.511 194.88 816.463C196.398 815.873 197.914 815.252 199.429 814.6C215.429 807.8 230.129 798.8 243.529 787.6C255.528 777.419 267.032 765.916 278.039 753.09C292.617 746.096 306.714 738.299 320.329 729.7C334.946 720.398 348.572 710.556 361.207 700.174C364.854 703.235 368.128 706.377 371.029 709.6L372.229 708.4C369.405 705.184 366.212 702.044 362.65 698.982L362.942 698.739L363.229 698.5C376.429 687.5 388.029 676.4 398.029 665.2C408.029 654 415.829 643.1 421.429 632.5C423.719 628.166 425.54 623.983 426.894 619.95C433.297 617.802 439.266 615.218 444.8 612.2C453.8 607.6 460.6 602.5 465.2 596.9L464 595.7C459.6 601.3 452.9 606.3 443.9 610.7C438.805 613.363 433.375 615.691 427.61 617.684C429.089 612.685 429.829 607.924 429.829 603.4C429.829 596.6 427.029 593.2 421.429 593.2C417.229 593.2 411.429 595.3 404.029 599.5C396.629 603.7 387.629 611 377.029 621.4C375.659 622.737 374.272 624.105 372.868 625.503C353.984 624.69 336.362 621.356 320 615.5C301 608.9 284.4 599.5 270.2 587.3C258.053 576.888 248.239 564.895 240.76 551.321C249.115 553.349 257.038 555.809 264.529 558.7C275.929 562.9 285.729 567.8 293.929 573.4C302.329 579 308.429 585.1 312.229 591.7L313.729 590.8C309.929 584.2 303.729 578 295.129 572.2C286.729 566.4 276.729 561.3 265.129 556.9C257.102 553.802 248.579 551.199 239.56 549.093C238.851 547.744 238.164 546.379 237.5 545C229.7 528.8 225.8 511.1 225.8 491.9C225.8 473.5 229.3 456.1 236.3 439.7C243.3 423.1 253.2 408 266 394.4C278.8 380.6 293.9 368.7 311.3 358.7C328.7 348.5 347.9 340.7 368.9 335.3C389.9 329.7 412.1 326.9 435.5 326.9C444.593 326.9 453.306 327.385 461.64 328.355C458.815 331.69 456.002 335.305 453.2 339.2C450.556 342.902 447.988 346.746 445.497 350.732C444.474 351.086 443.442 351.442 442.4 351.8C429.8 356 416.6 360.8 402.8 366.2C358.2 383.6 324.2 403.1 300.8 424.7C277.4 446.3 265.7 469.1 265.7 493.1C265.7 506.3 268.9 518.7 275.3 530.3C281.7 541.7 290.5 551.7 301.7 560.3C313.1 568.9 326.3 575.6 341.3 580.4C356.3 585.4 372.4 587.9 389.6 587.9C407.4 587.9 424.3 585.1 440.3 579.5C456.5 573.9 470.8 566.3 483.2 556.7C489.777 551.689 495.619 546.296 500.725 540.521C507.287 539.13 513.646 536.923 519.8 533.9C531.4 528.3 541.6 520.7 550.4 511.1C559.4 501.3 566.5 490.1 571.7 477.5C576.9 464.9 579.5 451.6 579.5 437.6C579.5 435.494 579.449 433.414 579.346 431.359C586.423 429.86 593.342 427.573 600.103 424.5C613.303 418.5 626.203 409.9 638.803 398.7C651.203 387.7 663.603 374.6 676.003 359.4C688.403 344.2 700.903 327.4 713.503 309C726.303 290.8 739.503 271.5 753.103 251.1C757.703 245.9 762.803 240.7 768.403 235.5C774.203 230.1 780.103 224.9 786.103 219.9C792.103 214.9 797.703 210.5 802.903 206.7H786.103L772.903 222.6L747.703 248.4C742.703 253.4 737.303 258.1 731.503 262.5C725.703 266.9 720.303 270.5 715.303 273.3C710.503 275.9 706.703 277.2 703.903 277.2C702.703 277.2 701.603 276.9 700.603 276.3C699.603 275.5 699.103 274.4 699.103 273C699.103 270 700.703 266.8 703.903 263.4C707.103 260 711.103 256.5 715.903 252.9C720.703 249.3 725.403 245.5 730.003 241.5C734.803 237.5 738.803 233.4 742.003 229.2C745.203 224.8 746.803 220.4 746.803 216C746.803 212.2 745.703 209.5 743.503 207.9C741.503 206.3 739.603 205.5 737.803 205.5C733.203 205.5 727.103 208.2 719.503 213.6C712.103 218.8 704.403 225.8 696.403 234.6L693.703 237.6L693.593 237.6L690.893 240.6C680.893 252 671.393 261 662.393 267.6C653.393 274 646.293 277.2 641.093 277.2C638.293 277.2 636.893 275.5 636.893 272.1C636.893 268.1 638.693 263.3 642.293 257.7C645.893 252.1 652.293 244.2 661.493 234L800.693 76.2C809.893 65.8 818.693 56.3 827.093 47.7C835.693 38.9 843.193 31.6 849.593 25.8C856.193 19.8 861.093 16 864.293 14.4H845.393L648.293 237.6C648.19 237.717 648.087 237.833 647.985 237.95L645.6 240.6C639.8 247.2 633.7 253.3 627.3 258.9C621.1 264.5 615.5 269 610.5 272.4C605.3 275.6 601.3 277.2 598.5 277.2C596.1 277.2 594.9 275.7 594.9 272.7C594.9 270.1 596.3 266.8 599.1 262.8C601.9 258.6 606.5 253.1 612.9 246.3C619.5 239.3 628.3 230.5 639.3 219.9C642.9 216.5 646.1 213.7 648.9 211.5C651.7 209.3 654.1 207.7 656.1 206.7H638.1C625.511 219.75 615.632 230.855 608.464 240.015L607.938 240.6C602.138 247 595.938 253 589.338 258.6C582.738 264.2 576.638 268.7 571.038 272.1C565.438 275.5 561.138 277.2 558.138 277.2C554.938 277.2 553.338 275.8 553.338 273C553.338 270.2 554.938 267 558.138 263.4C561.538 259.8 565.638 256 570.438 252C575.238 248 580.038 243.8 584.838 239.4C589.638 235 593.638 230.6 596.838 226.2C600.238 221.8 601.938 217.5 601.938 213.3C601.938 210.1 600.938 207.8 598.938 206.4C597.138 204.8 595.138 204 592.938 204C589.738 204 585.538 205.5 580.338 208.5C575.338 211.5 569.838 215.5 563.838 220.5C557.838 225.5 551.838 230.9 545.838 236.7C542.631 239.8 539.539 242.9 536.56 246H534.438C542.638 237.2 548.338 230.2 551.538 225C554.738 219.8 556.338 215.1 556.338 210.9C556.338 208.9 555.738 207.3 554.538 206.1C553.338 204.9 551.838 204.3 550.038 204.3C545.438 204.3 539.538 207 532.338 212.4C525.138 217.8 517.238 225.2 508.638 234.6L497.94 246H495.738C504.538 237 510.738 229.8 514.338 224.4C517.938 219 519.738 214.1 519.738 209.7C519.738 207.7 519.138 206.1 517.938 204.9C516.738 203.7 515.238 203.1 513.438 203.1C508.838 203.1 502.638 206 494.838 211.8C487.038 217.4 478.738 225 469.938 234.6L467.238 237.6H467.213L464.513 240.6C458.113 247.6 451.812 253.9 445.612 259.5C439.412 265.1 433.812 269.5 428.812 272.7C424.013 275.7 420.212 277.2 417.412 277.2C415.012 277.2 413.812 275.7 413.812 272.7C413.812 270.1 415.113 266.9 417.713 263.1C420.513 259.3 425.212 254 431.812 247.2C438.413 240.4 447.413 231.3 458.812 219.9C461.413 217.3 464.213 214.9 467.213 212.7C470.213 210.3 473.012 208.3 475.612 206.7H457.912L444.112 222H444.05C447.892 217 449.812 212.8 449.812 209.4C449.812 205.4 447.213 203.4 442.013 203.4C435.812 203.4 429.213 204.7 422.213 207.3C415.413 209.9 408.812 213.5 402.413 218.1C396.013 222.5 390.213 227.5 385.013 233.1C379.812 238.5 375.712 244.1 372.712 249.9C369.512 255.7 367.913 261.2 367.913 266.4C367.913 274.2 370.413 278.1 375.413 278.1C379.013 278.1 383.513 276.5 388.913 273.3C394.513 269.9 400.412 265.6 406.612 260.4C412.092 255.777 417.278 251.007 422.171 246.09C421.017 247.685 419.931 249.255 418.912 250.8C413.312 259.6 410.513 266.6 410.513 271.8C410.513 273.8 411.112 275.4 412.312 276.6C413.712 278 415.312 278.7 417.112 278.7C420.312 278.7 424.613 277 430.013 273.6C435.613 270.2 441.613 265.6 448.013 259.8C454.613 253.8 461.113 247.2 467.513 240L469.612 237.6H469.638L472.338 234.6C477.338 229 482.438 224 487.638 219.6C493.038 215 498.038 211.4 502.638 208.8C507.238 206 510.738 204.6 513.138 204.6C515.938 204.6 517.338 205.9 517.338 208.5C517.338 210.9 515.338 214.8 511.338 220.2C507.538 225.4 502.438 231.4 496.038 238.2C489.638 245 482.638 251.8 475.038 258.6C467.438 265.4 460.038 271.4 452.838 276.6H472.638L492.738 254.1L511.038 234.6C516.038 229.2 521.038 224.4 526.038 220.2C531.038 215.8 535.638 212.3 539.838 209.7C544.038 207.1 547.338 205.8 549.738 205.8C552.538 205.8 553.938 207.1 553.938 209.7C553.938 212.1 552.038 215.9 548.238 221.1C544.638 226.3 539.838 232.2 533.838 238.8C528.038 245.4 521.538 252.1 514.338 258.9C507.338 265.5 500.438 271.4 493.638 276.6H511.338L531.438 254.1C536.438 248.5 541.838 242.9 547.638 237.3C553.638 231.5 559.538 226.2 565.338 221.4C571.138 216.6 576.438 212.8 581.238 210C586.038 207 589.838 205.5 592.638 205.5C595.438 205.5 596.838 206.7 596.838 209.1C596.838 211.5 595.238 214.4 592.038 217.8C588.838 221.2 584.838 225 580.038 229.2C575.438 233.2 570.738 237.5 565.938 242.1C561.338 246.5 557.438 251 554.238 255.6C551.038 260.2 549.438 264.6 549.438 268.8C549.438 271.4 550.238 273.7 551.838 275.7C553.638 277.7 555.638 278.7 557.838 278.7C561.438 278.7 566.138 277 571.938 273.6C577.938 270 584.338 265.3 591.138 259.5C594.227 256.94 597.239 254.244 600.172 251.412C594.457 259.907 591.6 266.703 591.6 271.8C591.6 273.8 592.3 275.4 593.7 276.6C594.9 278 596.4 278.7 598.2 278.7C601.4 278.7 605.6 277.1 610.8 273.9C616.2 270.5 622.2 265.9 628.8 260.1C632.007 257.185 635.214 254.104 638.421 250.858C634.402 257.631 632.393 263.912 632.393 269.7ZM558.703 433.5C547.903 433.5 539.603 431.5 533.803 427.5C528.003 423.5 525.103 417.7 525.103 410.1C525.103 405.3 526.703 401.2 529.903 397.8C532.903 394.4 536.803 392.1 541.603 390.9V392.4C537.203 393.4 533.703 395.5 531.103 398.7C528.303 401.9 526.903 405.7 526.903 410.1C526.903 416.9 529.503 422.2 534.703 426C539.903 429.8 547.003 431.7 556.003 431.7C562.055 431.7 568.189 430.802 574.405 429.005C573.092 410.2 567.39 393.665 557.3 379.4C545.9 362.8 529.7 349.9 508.7 340.7C503.361 338.338 497.784 336.28 491.97 334.524C491.847 334.583 491.724 334.641 491.6 334.7C484.4 338.1 476.1 341.5 466.7 344.9C460.178 347.31 453.303 349.821 446.078 352.433C441.116 360.599 436.491 369.388 432.2 378.8C427.808 388.433 424.019 398.217 420.831 408.152C423.583 407.984 426.373 407.9 429.2 407.9C447.6 407.9 463.9 411.2 478.1 417.8C492.3 424.2 503.4 433.2 511.4 444.8C519.6 456.2 523.7 469.3 523.7 484.1C523.7 497.9 520.1 511.1 512.9 523.7C509.997 528.699 506.656 533.471 502.875 538.015C508.142 536.626 513.283 534.654 518.3 532.1C529.3 526.7 539 519.2 547.4 509.6C555.8 500 562.4 489.1 567.2 476.9C572.2 464.5 574.7 451.4 574.7 437.6C574.7 435.795 574.662 434.01 574.587 432.245C569.376 433.082 564.081 433.5 558.703 433.5ZM287 486.8C287 440.2 326.2 400.7 404.6 368.3C415.6 363.7 426.4 359.5 437 355.7C439.362 354.853 441.689 354.017 443.981 353.19C439.5 360.555 435.273 368.392 431.3 376.7C426.369 387.01 422.164 397.544 418.684 408.301C408.794 409.067 399.4 410.933 390.5 413.9C378.5 417.7 367.9 423.1 358.7 430.1C349.7 436.9 342.6 444.8 337.4 453.8C332.4 462.8 329.9 472.5 329.9 482.9C329.9 493.9 333.1 503.7 339.5 512.3C346.1 520.7 355.1 527.3 366.5 532.1C377.9 536.9 391 539.3 405.8 539.3C419.6 539.3 431.8 537.1 442.4 532.7C443.305 532.342 444.192 531.971 445.062 531.587L445.175 531.659C445.25 531.706 445.325 531.753 445.4 531.8C456.6 538.8 469.3 542.3 483.5 542.3C488.181 542.3 492.769 541.926 497.263 541.176C493.465 545.053 489.277 548.728 484.7 552.2C473.1 561.2 459.7 568.2 444.5 573.2C429.5 578.4 413.6 581 396.8 581C381.4 581 367 578.6 353.6 573.8C340.4 569 328.8 562.3 318.8 553.7C308.8 545.3 301 535.4 295.4 524C289.8 512.4 287 500 287 486.8ZM492.682 332.501C495.666 330.95 498.305 329.383 500.6 327.8C506.4 323.8 509.3 319.3 509.3 314.3C509.3 311.7 508.4 309.6 506.6 308C504.8 306.4 502.4 305.6 499.4 305.6C492.2 305.6 484.6 308.9 476.6 315.5C472.654 318.756 468.732 322.547 464.834 326.873C474.636 328.106 483.919 329.982 492.682 332.501ZM463.339 328.561C472.665 329.728 481.51 331.51 489.874 333.908C485.965 335.795 481.541 337.659 476.6 339.5C467.966 342.781 458.289 346.285 447.569 350.013C449.306 347.234 451.083 344.53 452.9 341.9C456.36 337.021 459.84 332.574 463.339 328.561ZM420.222 410.075C423.569 409.825 426.961 409.7 430.4 409.7C448.6 409.7 464.5 412.9 478.1 419.3C491.9 425.5 502.6 434.3 510.2 445.7C518 456.9 521.9 470 521.9 485C521.9 498 518.6 510.3 512 521.9C508.526 527.901 504.359 533.541 499.499 538.822C494.286 539.941 488.953 540.5 483.5 540.5C469.928 540.5 457.807 537.211 447.136 530.634C455.474 526.638 462.095 521.427 467 515C473 507.4 476 498.7 476 488.9C476 476.5 471.2 466.5 461.6 458.9C452.2 451.1 439.8 447.2 424.4 447.2C420.18 447.2 416.179 447.473 412.395 448.018C413.194 439.157 414.795 429.985 417.2 420.5C418.135 417.007 419.142 413.532 420.222 410.075ZM418.061 410.255C409.142 411.071 400.556 412.786 392.3 415.4C380.3 419.2 369.8 424.5 360.8 431.3C351.8 438.1 344.7 445.9 339.5 454.7C334.3 463.5 331.7 472.9 331.7 482.9C331.7 493.5 334.9 502.9 341.3 511.1C347.7 519.3 356.5 525.8 367.7 530.6C379.1 535.2 392 537.5 406.4 537.5C419.8 537.5 431.5 535.5 441.5 531.5C442.199 531.212 442.886 530.917 443.563 530.615C433.234 523.73 425.046 514.525 419 503C412.8 490.8 409.7 476.8 409.7 461C409.7 457.478 409.835 453.905 410.106 450.283C402.917 451.617 396.582 453.989 391.1 457.4C382.3 462.8 377.9 469.8 377.9 478.4C377.9 483 379 487 381.2 490.4C383.4 493.8 386.4 496.1 390.2 497.3L389 498.2C385.2 497 382.1 494.7 379.7 491.3C377.3 487.7 376.1 483.6 376.1 479C376.1 469.8 380.6 462.2 389.6 456.2C395.5 452.352 402.388 449.738 410.262 448.358C411.081 439.001 412.793 429.315 415.4 419.3C416.231 416.268 417.118 413.253 418.061 410.255ZM412.236 449.923C411.945 453.672 411.8 457.364 411.8 461C411.8 476.4 414.9 490.1 421.1 502.1C427.109 513.729 435.277 522.917 445.606 529.663C453.844 525.663 460.376 520.475 465.2 514.1C471 506.7 473.9 498.3 473.9 488.9C473.9 476.9 469.4 467.3 460.4 460.1C451.6 452.7 439.8 449 425 449C420.493 449 416.238 449.308 412.236 449.923ZM234.328 549.864C232.027 549.378 229.693 548.923 227.329 548.5C214.129 546.1 200.729 544.9 187.129 544.9C160.729 544.9 136.229 549 113.629 557.2C91.2293 565.4 71.6293 576.9 54.8293 591.7C38.2293 606.5 25.2293 623.9 15.8293 643.9C6.6293 663.7 2.0293 685.3 2.0293 708.7C2.0293 728.9 5.82929 747.5 13.4293 764.5C21.0293 781.5 31.7293 796.2 45.5293 808.6C59.3293 821.2 75.6293 830.9 94.4293 837.7C113.229 844.7 133.829 848.2 156.229 848.2C172.229 848.2 188.429 846.3 204.829 842.5C211.308 841.078 217.725 839.406 224.079 837.484C223.763 837.257 223.447 837.029 223.129 836.8C212.886 829.35 202.643 822.883 192.4 817.398C178.916 822.333 165.359 824.8 151.729 824.8C138.129 824.8 127.929 823.8 121.129 821.8C114.529 820 110.129 817.7 107.929 814.9C105.729 812.1 104.629 809.4 104.629 806.8C104.629 804 106.129 801.3 109.129 798.7C112.329 796.1 117.129 794.8 123.529 794.8C137.129 794.8 150.229 797.2 162.829 802C167.743 803.766 172.628 805.723 177.483 807.873C184.036 805.141 190.652 801.884 197.329 798.1C209.529 791.3 220.929 782.8 231.529 772.6C232.424 771.822 233.323 771.034 234.226 770.237C230.823 771.29 227.424 772.278 224.029 773.2C207.829 777.4 192.229 779.5 177.229 779.5C152.029 779.5 131.229 775.7 114.829 768.1C98.4293 760.5 86.1293 750.4 77.9293 737.8C69.9293 725 65.9293 710.8 65.9293 695.2C65.9293 681.6 69.0293 669.1 75.2293 657.7C81.6293 646.1 90.5293 636 101.929 627.4C113.329 618.8 126.629 612.1 141.829 607.3C157.229 602.5 173.929 600.1 191.929 600.1C211.329 600.1 226.829 603 238.429 608.8C250.029 614.6 258.429 622.1 263.629 631.3C268.419 639.282 271.084 647.657 271.626 656.426C282.513 659.093 293.148 662.418 303.529 666.4C311.247 669.255 318.602 672.361 325.593 675.718C334.232 666.272 342.577 657.266 350.629 648.7C357.818 640.9 364.655 633.743 371.142 627.229C352.267 626.286 334.52 622.876 317.9 617C298.1 610.2 280.8 600.6 266 588.2C252.845 577.207 242.288 564.429 234.328 549.864ZM375.105 627.391C366.198 636.859 357.139 647.763 347.929 660.1C343.219 666.532 338.447 673.086 333.613 679.764C336.977 681.546 340.249 683.391 343.429 685.3C350.172 689.345 356.157 693.549 361.384 697.91C370.29 690.545 378.505 683.042 386.029 675.4C399.029 662.4 409.229 649.7 416.629 637.3C420.144 631.473 422.846 625.924 424.735 620.653C421.623 621.635 418.412 622.517 415.1 623.3C404.1 626.1 393.1 627.5 382.1 627.5C379.752 627.5 377.42 627.464 375.105 627.391ZM425.501 618.393C427.187 613.107 428.029 608.109 428.029 603.4C428.029 597.8 425.829 595 421.429 595C417.429 595 411.929 597.2 404.929 601.6C398.129 606 389.529 613.2 379.129 623.2C378.344 624 377.558 624.812 376.771 625.635C378.536 625.678 380.313 625.7 382.1 625.7C392.9 625.7 403.7 624.3 414.5 621.5C418.29 620.588 421.957 619.552 425.501 618.393ZM299.029 802.9C309.713 795.468 319.257 787.497 327.663 778.986C327.223 779.754 326.803 780.525 326.402 781.3C323.202 787.1 321.602 792.6 321.602 797.8C321.602 801.6 322.302 804.6 323.702 806.8C324.902 809 326.702 810.1 329.102 810.1C332.702 810.1 337.202 808.4 342.602 805C348.002 801.6 353.802 797.3 360.002 792.1C363.439 789.2 366.789 786.213 370.053 783.14C370.691 787.313 373.34 789.4 378.002 789.4C381.402 789.4 385.402 787.8 390.002 784.6C394.602 781.4 399.402 777 404.402 771.4L406.502 769H406.629L409.328 766C413.928 761 418.729 756.4 423.729 752.2C428.929 748 433.628 744.7 437.828 742.3C442.228 739.7 445.629 738.4 448.029 738.4C450.428 738.4 451.629 739.5 451.629 741.7C451.629 745.1 450.129 748.6 447.129 752.2C444.129 755.6 440.329 759.2 435.729 763C431.329 766.8 426.829 770.8 422.229 775C417.829 779 414.129 783.2 411.129 787.6C408.129 792 406.629 796.7 406.629 801.7C406.629 807.3 409.129 810.1 414.129 810.1C417.329 810.1 421.529 808.7 426.729 805.9C431.929 803.1 437.529 799.4 443.529 794.8C449.529 790.2 455.128 785.2 460.328 779.8H461.184C447.231 798.614 433.546 816.714 420.129 834.1C406.129 852.5 392.428 869.5 379.029 885.1C375.113 889.649 371.23 894.025 367.38 898.226C357.204 897.168 347.344 895.026 337.8 891.8C320 886.3 289.729 873.6 276.529 866.2C263.529 859 250.729 851.3 238.129 843.1C235.183 841.182 232.241 839.286 229.305 837.412C237.782 834.64 246.123 831.436 254.329 827.8C270.329 820.8 285.229 812.5 299.029 802.9ZM170.329 807.1C171.828 807.696 173.328 808.314 174.827 808.952C170.5 810.665 166.201 812.148 161.929 813.4C150.529 816.8 140.329 818.5 131.329 818.5C123.929 818.5 117.929 817.4 113.329 815.2C108.729 813 106.429 810 106.429 806.2C106.429 803.4 108.029 801.1 111.229 799.3C114.629 797.5 118.829 796.6 123.829 796.6C137.429 796.4 152.929 799.9 170.329 807.1ZM288.229 746.2C285.727 747.478 283.223 748.722 280.718 749.932C280.863 749.758 281.009 749.584 281.155 749.409L281.329 749.2C293.329 734.6 304.829 719.7 315.829 704.5C321.452 696.629 326.996 688.914 332.461 681.356C335.924 683.202 339.28 685.117 342.529 687.1C349.024 690.953 354.822 694.957 359.923 699.112C354.114 703.866 348.016 708.562 341.629 713.2C324.829 725.4 307.029 736.4 288.229 746.2ZM321.229 680.5C322.237 679.393 323.242 678.292 324.242 677.197C317.504 673.962 310.4 670.963 302.929 668.2C292.771 664.25 282.364 660.946 271.709 658.29C271.722 658.792 271.729 659.295 271.729 659.8C271.729 669 269.229 677.6 264.229 685.6C259.429 693.6 252.729 700.6 244.129 706.6C235.729 712.6 225.829 717.3 214.429 720.7C203.229 724.1 191.229 725.8 178.429 725.8C163.029 725.8 150.529 722.9 140.929 717.1C131.329 711.3 126.529 703.6 126.529 694C126.529 685.4 130.329 677.7 137.929 670.9C145.729 664.1 156.129 658.7 169.129 654.7C182.329 650.7 197.129 648.7 213.529 648.7C227.929 648.7 242.829 650.3 258.229 653.5C262.124 654.249 265.987 655.079 269.819 655.99C268.878 639.977 261.915 627.147 248.929 617.5C235.129 607.1 216.129 601.9 191.929 601.9C174.129 601.9 157.629 604.3 142.429 609.1C127.429 613.7 114.329 620.2 103.129 628.6C91.9293 637 83.2293 646.9 77.0293 658.3C70.8293 669.7 67.7293 682 67.7293 695.2C67.7293 712.2 72.1293 726.9 80.9293 739.3C89.7293 751.5 102.329 761 118.729 767.8C135.129 774.4 154.629 777.7 177.229 777.7C194.629 777.7 212.729 774.9 231.529 769.3C233.465 768.709 235.4 768.098 237.333 767.468C244.748 760.805 252.413 753.516 260.329 745.6C270.329 735.4 280.429 724.8 290.629 713.8C301.029 702.6 311.229 691.5 321.229 680.5ZM258.229 655.3C262.152 656.064 266.043 656.913 269.901 657.846C269.92 658.492 269.929 659.143 269.929 659.8C269.929 671.6 265.829 682.4 257.629 692.2C249.429 701.8 238.429 709.5 224.629 715.3C210.829 721.1 195.429 724 178.429 724C163.429 724 151.329 721.3 142.129 715.9C132.929 710.3 128.329 703 128.329 694C128.329 685.8 132.029 678.5 139.429 672.1C147.029 665.5 157.229 660.3 170.029 656.5C183.029 652.5 197.529 650.5 213.529 650.5C227.929 650.5 242.829 652.1 258.229 655.3ZM583.636 810.1C578.236 810.1 575.536 807.1 575.536 801.1C575.536 795.29 577.56 788.984 581.609 782.181C578.499 785.325 575.366 788.331 572.21 791.2C565.81 797 559.81 801.6 554.21 805C548.81 808.4 544.51 810.1 541.31 810.1C539.51 810.1 537.91 809.4 536.51 808C535.31 806.8 534.71 805.2 534.71 803.2C534.71 798 537.51 791 543.11 782.2C544.128 780.655 545.215 779.085 546.369 777.49C541.476 782.407 536.289 787.177 530.81 791.8C524.61 797 518.71 801.3 513.11 804.7C507.71 807.9 503.21 809.5 499.61 809.5C494.61 809.5 492.11 805.6 492.11 797.8C492.11 792.6 493.71 787.1 496.91 781.3C499.91 775.5 504.01 769.9 509.21 764.5C514.41 758.9 520.21 753.9 526.61 749.5C533.01 744.9 539.61 741.3 546.41 738.7C553.41 736.1 560.01 734.8 566.21 734.8C571.41 734.8 574.01 736.8 574.01 740.8C574.01 744.2 572.089 748.4 568.247 753.4H568.31L582.11 738.1H599.81C597.21 739.7 594.41 741.7 591.41 744.1C588.41 746.3 585.61 748.7 583.01 751.3C571.61 762.7 562.61 771.8 556.01 778.6C549.41 785.4 544.71 790.7 541.91 794.5C539.31 798.3 538.01 801.5 538.01 804.1C538.01 807.1 539.21 808.6 541.61 808.6C544.41 808.6 548.21 807.1 553.01 804.1C558.01 800.9 563.61 796.5 569.81 790.9C576.01 785.3 582.31 779 588.71 772L591.41 769H591.436L788.536 545.8H807.436C804.236 547.4 799.336 551.2 792.736 557.2C786.336 563 778.836 570.3 770.236 579.1C761.836 587.7 753.036 597.2 743.836 607.6L604.636 765.4C595.436 775.6 589.036 783.5 585.436 789.1C581.836 794.7 580.036 799.5 580.036 803.5C580.036 806.9 581.436 808.6 584.236 808.6C589.436 808.6 596.536 805.4 605.536 799C614.536 792.4 624.036 783.4 634.036 772L636.736 769H636.846C639.846 765.2 642.746 761.7 645.546 758.5C648.346 755.3 651.446 751.8 654.846 748C658.446 744 662.846 739.2 668.046 733.6C672.316 729.013 677.4 723.613 683.297 717.4H648.846V715.3H685.291C685.655 714.918 686.021 714.533 686.39 714.145C686.968 713.537 687.553 712.922 688.146 712.3C696.146 703.9 705.946 693.5 717.546 681.1C720.146 681.1 723.146 680.9 726.546 680.5C730.146 679.9 733.546 679.2 736.746 678.4C731.746 682 724.746 688.1 715.746 696.7C709.986 702.204 703.735 708.404 696.992 715.3H767.646V717.4H694.945C691.783 720.651 688.517 724.051 685.146 727.6C673.746 739.4 662.046 752 650.046 765.4C641.046 775.4 634.746 783.3 631.146 789.1C627.346 794.7 625.446 799.5 625.446 803.5C625.446 806.9 626.846 808.6 629.646 808.6C632.646 808.6 635.946 807.5 639.546 805.3C643.346 802.9 647.946 799.1 653.346 793.9C658.946 788.5 665.846 781.2 674.046 772L676.746 769H676.689L679.389 766C687.389 757.2 695.089 750.2 702.489 745C710.089 739.6 716.189 736.9 720.789 736.9C722.589 736.9 724.489 737.7 726.489 739.3C728.689 740.9 729.789 743.6 729.789 747.4C729.789 751.8 728.189 756.2 724.989 760.6C721.789 764.8 717.789 768.9 712.989 772.9C708.389 776.9 703.689 780.7 698.889 784.3C694.089 787.9 690.089 791.4 686.889 794.8C683.689 798.2 682.089 801.4 682.089 804.4C682.089 805.8 682.589 806.9 683.589 807.7C684.589 808.3 685.689 808.6 686.889 808.6C689.689 808.6 693.489 807.3 698.289 804.7C703.289 801.9 708.689 798.3 714.489 793.9C720.289 789.5 725.689 784.8 730.689 779.8L755.889 754L769.089 738.1H785.889C780.689 741.9 775.089 746.3 769.089 751.3C763.089 756.3 757.189 761.5 751.389 766.9C745.789 772.1 740.689 777.3 736.089 782.5C722.49 802.9 709.289 822.2 696.489 840.4C683.889 858.8 671.389 875.6 658.989 890.8C646.589 906 634.189 919.1 621.789 930.1C609.189 941.3 596.289 949.9 583.089 955.9C569.889 961.9 556.089 964.9 541.689 964.9C530.889 964.9 522.589 962.9 516.789 958.9C510.989 954.9 508.089 949.1 508.089 941.5C508.089 936.7 509.689 932.6 512.889 929.2C515.889 925.8 519.789 923.5 524.589 922.3V923.8C520.189 924.8 516.689 926.9 514.089 930.1C511.289 933.3 509.889 937.1 509.889 941.5C509.889 948.3 512.489 953.6 517.689 957.4C522.889 961.2 529.989 963.1 538.989 963.1C550.589 963.1 562.489 959.8 574.689 953.2C586.689 946.8 599.089 937.8 611.889 926.2C624.689 914.6 637.889 900.9 651.489 885.1C664.889 869.5 678.589 852.5 692.589 834.1C706.007 816.714 719.692 798.614 733.645 779.8H732.789C727.589 785.2 721.989 790.2 715.989 794.8C709.989 799.4 704.389 803.1 699.189 805.9C693.989 808.7 689.789 810.1 686.589 810.1C681.589 810.1 679.089 807.3 679.089 801.7C679.089 796.7 680.589 792 683.589 787.6C686.589 783.2 690.289 779 694.689 775C699.289 770.8 703.789 766.8 708.189 763C712.789 759.2 716.589 755.6 719.589 752.2C722.589 748.6 724.089 745.1 724.089 741.7C724.089 739.5 722.889 738.4 720.489 738.4C718.089 738.4 714.689 739.7 710.289 742.3C706.089 744.7 701.389 748 696.189 752.2C691.189 756.4 686.389 761 681.789 766L679.089 769H679.146L677.046 771.4C664.646 785.4 654.746 795.4 647.346 801.4C640.146 807.2 634.046 810.1 629.046 810.1C623.646 810.1 620.946 807.1 620.946 801.1C620.946 795.283 622.975 788.969 627.034 782.156C619.841 789.5 613.074 795.515 606.736 800.2C597.736 806.8 590.036 810.1 583.636 810.1ZM511.91 803.8C506.91 806.6 502.91 808 499.91 808C497.11 808 495.71 806.8 495.71 804.4C495.71 801.4 497.01 797.7 499.61 793.3C502.21 788.9 505.61 784.2 509.81 779.2C514.21 774.2 519.01 769.2 524.21 764.2C529.41 759.2 534.71 754.7 540.11 750.7C545.51 746.5 550.51 743.2 555.11 740.8C559.91 738.4 563.81 737.2 566.81 737.2C570.21 737.2 571.91 738.5 571.91 741.1C571.91 744.5 569.61 748.9 565.01 754.3C560.61 759.7 554.81 766.2 547.61 773.8C541.21 780.4 534.91 786.3 528.71 791.5C522.51 796.7 516.91 800.8 511.91 803.8ZM389.693 760C391.448 757.98 393.051 756.08 394.502 754.3C399.102 748.9 401.402 744.5 401.402 741.1C401.402 738.5 399.702 737.2 396.302 737.2C393.302 737.2 389.402 738.4 384.602 740.8C380.002 743.2 375.002 746.5 369.602 750.7C364.202 754.7 358.902 759.2 353.702 764.2C348.502 769.2 343.702 774.2 339.302 779.2C335.102 784.2 331.702 788.9 329.102 793.3C326.502 797.7 325.202 801.4 325.202 804.4C325.202 807.2 326.602 808.6 329.402 808.6C332.402 808.6 336.302 807.1 341.102 804.1C346.102 801.1 351.702 797 357.902 791.8C361.822 788.512 365.822 784.905 369.902 780.977C369.906 777.785 370.706 774.693 372.302 771.7C373.902 768.5 376.702 764.6 380.702 760H389.693ZM699 144.6C700.8 144.6 701.7 145.3 701.7 146.7C701.7 148.7 700.3 151.2 697.5 154.2C694.9 157.2 691.8 159.9 688.2 162.3C684.6 164.5 681.5 165.6 678.9 165.6C677.3 165.6 676.5 164.9 676.5 163.5C676.5 161.5 677.8 159 680.4 156C683.2 153 686.4 150.4 690 148.2C693.6 145.8 696.6 144.6 699 144.6ZM375.712 276.6C378.712 276.6 382.712 275.2 387.712 272.4C392.712 269.4 398.312 265.3 404.513 260.1C410.713 254.9 417.012 249 423.412 242.4C430.612 234.8 436.413 228.3 440.812 222.9C445.413 217.5 447.713 213.1 447.713 209.7C447.713 207.1 446.012 205.8 442.612 205.8C439.612 205.8 435.712 207 430.912 209.4C426.312 211.8 421.312 215.1 415.912 219.3C410.512 223.3 405.213 227.8 400.013 232.8C394.812 237.8 390.012 242.8 385.612 247.8C381.412 252.8 378.013 257.5 375.413 261.9C372.812 266.3 371.513 270 371.513 273C371.513 275.4 372.913 276.6 375.712 276.6Z" fill="black"/>
</svg>
